<svg width="369" height="451" viewBox="0 0 369 451" fill="none" xmlns="http://www.w3.org/2000/svg">
<path d="M301.277 189.612C342.963 175.214 368.88 141.481 368.88 96.6407C368.88 43.5731 332.541 0.927002 247.386 0.927002H81.8754L74.0592 37.5395C77.6245 37.2653 81.1897 36.9911 84.755 36.9911C151.261 36.9911 205.289 91.0186 205.289 157.525V278.058C205.289 289.165 218.315 302.192 229.423 302.192C242.724 302.192 253.557 313.025 253.557 326.326C253.557 339.628 242.724 350.46 229.423 350.46H7.82749L0.148438 386.525H192.947C293.049 386.525 350.368 339.079 350.368 266.128C350.505 231.435 329.524 201.405 301.277 189.612Z" fill="#2F3D7E"/>
<path d="M94.7678 450.699C122.741 450.699 145.504 427.937 145.504 399.963H44.0312C44.0312 428.074 66.657 450.699 94.7678 450.699Z" fill="#2F3D7E"/>
</svg>
